# xmcd CD database file
#
# Track frame offsets:
#	150
#	21708
#	37806
#	57582
#	72649
#	93853
#	109352
#	127072
#	142779
#	163234
#
# Disc length: 2390 seconds
#
# Revision: 0
# Processed by: cddbd v1.5.2PL0 Copyright (c) Steve Scherf et al.
# Submitted via: CDex 1.51
#
DISCID=9509540a
DTITLE=tonu raadik - mantlikohvik
DYEAR=2007
DGENRE=Blues
TTITLE0=mantlikohvik
TTITLE1=kiudpilved
TTITLE2=novembripäike
TTITLE3=päikeselaik
TTITLE4=sügisvärv
TTITLE5=pärituul
TTITLE6=pärast rändlimde
TTITLE7=tulikiri
TTITLE8=stardirada
TTITLE9=tänavalaterna valgus seinal
EXTD=YEAR: 2007
EXTT0=
EXTT1=
EXTT2=
EXTT3=
EXTT4=
EXTT5=
EXTT6=
EXTT7=
EXTT8=
EXTT9=
PLAYORDER=
